<svg xmlns="http://www.w3.org/2000/svg" xmlns:xlink="http://www.w3.org/1999/xlink" width="100" height="200" viewBox="0 0 100 200">
    <defs>
        <path id="prefix__a" d="M100 0c55.228 0 100 44.772 100 100s-44.772 100-100 100S0 155.228 0 100 44.772 0 100 0zm0 67c-18.225 0-33 14.775-33 33s14.775 33 33 33 33-14.775 33-33-14.775-33-33-33z"/>
    </defs>
    <g fill="none" fill-rule="evenodd">
        <use fill="#F67E7E" xlink:href="#prefix__a"/>
        <path fill="#79C8C7" d="M100 40v4H0v-4h100zm0-8v4H0v-4h100zm0-8v4H0v-4h100zm0-8v4H0v-4h100zm0-8v4H0V8h100zm0-8v4H0V0h100z"/>
    </g>
</svg>
