<svg xmlns="http://www.w3.org/2000/svg" width="72" height="72" viewBox="0 0 72 72">
    <g fill="none" fill-rule="evenodd">
        <circle cx="44" cy="44" r="28" fill="#2C6269"/>
        <path fill="#79C8C7" fill-rule="nonzero" d="M28.496 0c5.66 0 10.267 4.606 10.267 10.267v4.666c2.058 0 3.733 1.675 3.733 3.734S40.82 22.4 38.763 22.4h-.213c-.289 3.668-2.352 6.874-5.387 8.7v1.566h2.949c2.42 0 4.401 1.913 4.512 4.306l.005.212c0 .07 0 .14-.003.21l.122.007c4.216.561 7.348 4.142 7.348 8.332V56h-1.867V45.733c0-3.26-2.436-6.044-5.668-6.475l-.405-.025c-.083.166-.176.328-.28.484l-4.847 7.233V56h-1.867l.001-13.044c-1.604 1.189-3.557 1.844-5.6 1.844-2.044 0-3.997-.655-5.6-1.843V56h-1.867v-9.05l-4.845-7.23c-.105-.158-.199-.32-.282-.487l-.467.03c-3.17.426-5.606 3.21-5.606 6.47V56H7.029V45.733c0-4.19 3.132-7.77 7.288-8.326l.182-.013-.004-.22c0-2.41 1.912-4.391 4.305-4.502l.212-.005 2.95-.001v-1.534c-2.59-1.534-4.541-4.112-5.187-7.266l-.055-.289c-.058-.327-.102-.656-.13-.987l-.015-.19h-.212c-1.993 0-3.625-1.568-3.729-3.535l-.005-.198c0-2.06 1.675-3.734 3.734-3.734l-.001-4.364c-2.139-1.02-3.64-3.167-3.729-5.668l-.004-.234c0-.516.418-.934.934-.934h.5c-.319-.55-.5-1.187-.5-1.866V.933c0-.515.418-.933.933-.933zM18.229 46.667c.515 0 .934.417.934.933v5.6c0 .516-.419.933-.934.933-.515 0-.933-.417-.933-.933v-5.6c0-.516.418-.933.933-.933zm18.667 0c.516 0 .933.417.933.933v5.6c0 .516-.417.933-.933.933s-.934-.417-.934-.933v-5.6c0-.516.418-.933.934-.933zm-.784-12.134h-2.95v1.139c-.003.427.274.791.666.908l.11.025h.158c.516 0 .933.418.933.934v6.057l3.294-4.915c.256-.385.405-.827.434-1.289l.006-.199c0-1.47-1.19-2.66-2.651-2.66zm-14.15 0h-2.949c-1.461 0-2.65 1.19-2.65 2.65-.006.542.147 1.058.441 1.5l3.291 4.912v-6.056c0-.48.361-.873.825-.927l.11-.007h.158c.448-.076.777-.467.774-.926v-1.146zM31.296 32c-.572.213-1.168.38-1.783.5-.651.115-1.3.172-1.94.172-1.3 0-2.564-.23-3.744-.658v3.658c.009 1.21-.761 2.265-1.867 2.654v2.123c1.431 1.583 3.454 2.484 5.6 2.484 2.147 0 4.17-.901 5.6-2.485v-2.123c-1.106-.389-1.876-1.444-1.866-2.661zm1.933-20.8H21.895c-.413 2.84-2.638 4.552-3.666 5.203V19.6l.221 2.84c.023.267.06.54.107.81.883 4.971 5.646 8.297 10.616 7.415 4.167-.807 7.27-4.341 7.529-8.593l.197-2.545v-3.122c-1.027-.65-3.255-2.363-3.67-5.205zm-3.526 11.473l1.32 1.32c-1.381 1.38-3.217 2.14-5.168 2.14h-.16v-1.866h.16c1.453-.001 2.82-.567 3.848-1.594zm-3.008-6.22l1.734.694-1.355 3.386h1.422V22.4h-2.8c-.31 0-.6-.154-.773-.41-.174-.255-.21-.582-.094-.87l1.866-4.666zm12.068.347v2.8l-.072.933h.072c.98 0 1.786-.759 1.86-1.72l.006-.146c0-1.03-.837-1.867-1.866-1.867zm-22.399 0c-1.03 0-1.868.837-1.868 1.867s.837 1.866 1.867 1.866h.068l-.066-.861V16.8zm5.598-.933c1.031 0 1.867.835 1.867 1.866 0 1.031-.836 1.867-1.867 1.867-1.03 0-1.866-.836-1.866-1.867 0-1.03.836-1.866 1.866-1.866zm11.2 0c1.031 0 1.867.835 1.867 1.866 0 1.031-.836 1.867-1.867 1.867-1.03 0-1.866-.836-1.866-1.867 0-1.03.836-1.866 1.867-1.866zm3.733-4.668l-1.766.002c.272 1.256 1.054 2.215 1.768 2.86l-.002-2.862zm-18.666-.066v2.926c.714-.644 1.495-1.603 1.767-2.858l-.833-.001c-.317 0-.629-.023-.934-.067zm10.267-9.266H15.429c0 1.03.837 1.866 1.867 1.866.515 0 .933.419.933.934 0 .515-.418.933-.933.933H14.59c.433 2.127 2.32 3.733 4.573 3.733h17.68c-.465-4.194-4.03-7.466-8.347-7.466z"/>
        <path d="M0 0H56V56H0z"/>
    </g>
</svg>
