<svg xmlns="http://www.w3.org/2000/svg" xmlns:xlink="http://www.w3.org/1999/xlink" width="200" height="100" viewBox="0 0 200 100">
    <defs>
        <path id="prefix__a" d="M0 0H200V100H0z"/>
    </defs>
    <g fill="none" fill-rule="evenodd">
        <mask id="prefix__b" fill="#fff">
            <use xlink:href="#prefix__a"/>
        </mask>
        <g mask="url(#prefix__b)">
            <g>
                <path fill="#2C6269" d="M0 0H100V100H0z" transform="matrix(-1 0 0 1 200 0) rotate(180 50 50)"/>
                <path fill="#012F34" d="M100 0c55.228 0 100 44.772 100 100s-44.772 100-100 100S0 155.228 0 100 44.772 0 100 0zm0 67c-18.225 0-33 14.775-33 33s14.775 33 33 33 33-14.775 33-33-14.775-33-33-33z" transform="matrix(-1 0 0 1 200 0)"/>
                <path fill="#79C8C7" d="M100 96v4H0v-4h100zm0-8v4H0v-4h100zm0-8v4H0v-4h100zm0-8v4H0v-4h100zm0-8v4H0v-4h100zm0-8v4H0v-4h100z" transform="matrix(-1 0 0 1 200 0)"/>
            </g>
        </g>
    </g>
</svg>
