<svg xmlns="http://www.w3.org/2000/svg" xmlns:xlink="http://www.w3.org/1999/xlink" width="100" height="200" viewBox="0 0 100 200">
    <defs>
        <path id="prefix__a" d="M0 0H100V200H0z"/>
    </defs>
    <g fill="none" fill-rule="evenodd">
        <mask id="prefix__b" fill="#fff">
            <use xlink:href="#prefix__a"/>
        </mask>
        <use fill="#014E56" xlink:href="#prefix__a"/>
        <g mask="url(#prefix__b)">
            <g>
                <path fill="#79C8C7" d="M0 100H100V200H0z" transform="matrix(-1 0 0 1 100 0) rotate(180 50 150)"/>
                <path fill="#012F34" d="M100 0c55.228 0 100 44.772 100 100s-44.772 100-100 100S0 155.228 0 100 44.772 0 100 0zm0 67c-18.225 0-33 14.775-33 33s14.775 33 33 33 33-14.775 33-33-14.775-33-33-33z" transform="matrix(-1 0 0 1 100 0)"/>
                <path fill="#F67E7E" d="M4 196v4H0v-4h4zm7 0v4H7v-4h4zm7 0v4h-4v-4h4zm7 0v4h-4v-4h4zm7 0v4h-4v-4h4zm7 0v4h-4v-4h4zm7 0v4h-4v-4h4zm7 0v4h-4v-4h4zm-49-8v4H0v-4h4zm7 0v4H7v-4h4zm7 0v4h-4v-4h4zm7 0v4h-4v-4h4zm7 0v4h-4v-4h4zm7 0v4h-4v-4h4zm7 0v4h-4v-4h4zm7 0v4h-4v-4h4zm-49-8v4H0v-4h4zm7 0v4H7v-4h4zm7 0v4h-4v-4h4zm7 0v4h-4v-4h4zm7 0v4h-4v-4h4zm7 0v4h-4v-4h4zm7 0v4h-4v-4h4zm7 0v4h-4v-4h4zm-35-8v4h-4v-4h4zm14 0v4h-4v-4h4zm-7 0v4h-4v-4h4zm21 0v4h-4v-4h4zm-7 0v4h-4v-4h4zm-35 0v4H0v-4h4zm7 0v4H7v-4h4zm42 0v4h-4v-4h4zm-49-8v4H0v-4h4zm7 0v4H7v-4h4zm7 0v4h-4v-4h4zm7 0v4h-4v-4h4zm7 0v4h-4v-4h4zm7 0v4h-4v-4h4zm7 0v4h-4v-4h4zm7 0v4h-4v-4h4zm-49-8v4H0v-4h4zm7 0v4H7v-4h4zm7 0v4h-4v-4h4zm7 0v4h-4v-4h4zm7 0v4h-4v-4h4zm7 0v4h-4v-4h4zm7 0v4h-4v-4h4zm7 0v4h-4v-4h4z" transform="matrix(-1 0 0 1 100 0)"/>
            </g>
        </g>
    </g>
</svg>
