<svg xmlns="http://www.w3.org/2000/svg" width="72" height="72" viewBox="0 0 72 72">
    <g fill="none" fill-rule="evenodd">
        <circle cx="44" cy="44" r="28" fill="#2C6269"/>
        <path fill="#79C8C7" fill-rule="nonzero" d="M31.719 0c1.206 0 2.187.981 2.187 2.188v3.23c2.068.538 4.042 1.355 5.886 2.436l2.284-2.283c.853-.852 2.24-.852 3.093 0l5.26 5.26c.852.852.852 2.24 0 3.093l-2.283 2.284c1.081 1.844 1.898 3.818 2.436 5.886h3.23c1.207 0 2.188.981 2.188 2.187v7.438c0 1.206-.981 2.187-2.188 2.187h-3.237c-.54 2.065-1.358 4.035-2.44 5.877l2.293 2.293c.853.853.853 2.24 0 3.093l-5.259 5.26c-.852.852-2.24.852-3.093 0l-2.301-2.301c-1.84 1.077-3.808 1.89-5.869 2.426v3.258c0 1.207-.981 2.188-2.187 2.188H24.28c-1.206 0-2.187-.981-2.187-2.188v-3.265c-2.058-.538-4.022-1.352-5.859-2.43l-2.31 2.312c-.854.852-2.242.852-3.094 0l-5.26-5.26c-.852-.852-.852-2.24 0-3.093l2.311-2.311c-1.077-1.837-1.891-3.8-2.43-5.859H2.189C.98 33.906 0 32.925 0 31.72V24.28c0-1.206.981-2.187 2.188-2.187h3.258c.536-2.062 1.35-4.03 2.426-5.869l-2.3-2.301c-.853-.853-.853-2.24 0-3.093l5.259-5.26c.852-.852 2.24-.852 3.093 0l2.293 2.294c1.842-1.082 3.812-1.9 5.877-2.44V2.188C22.094.98 23.075 0 24.28 0h7.438zm0 2.188H24.28v4.098c0 .513-.356.957-.857 1.068-2.414.535-4.696 1.482-6.78 2.815-.433.277-1 .216-1.363-.148l-2.904-2.903-5.259 5.26 2.91 2.91c.363.362.425.928.149 1.36-1.328 2.085-2.27 4.364-2.801 6.774-.11.502-.555.86-1.068.86h-4.12v7.437h4.126c.513 0 .957.357 1.068.857.533 2.408 1.477 4.683 2.805 6.764.276.433.215 1-.148 1.362l-2.92 2.92 5.258 5.26 2.92-2.92c.212-.212.492-.321.774-.321.204 0 .407.056.589.172 2.08 1.328 4.357 2.272 6.764 2.805.5.111.857.555.857 1.068v4.127h7.438v-4.12c0-.514.357-.959.859-1.069 2.41-.53 4.69-1.473 6.774-2.801.432-.276.998-.214 1.361.15l2.91 2.909 5.259-5.26-2.903-2.902c-.364-.364-.425-.93-.148-1.363 1.333-2.085 2.28-4.367 2.815-6.78.11-.502.555-.858 1.068-.858h4.099V24.28H49.72c-.514 0-.958-.357-1.068-.859-.532-2.417-1.478-4.702-2.811-6.79-.276-.433-.215-1 .148-1.362l2.893-2.893-5.26-5.259-2.892 2.893c-.363.363-.929.424-1.362.148-2.088-1.333-4.373-2.278-6.79-2.81-.502-.111-.86-.555-.86-1.069V2.187zm4.087 11.877c.527.295.714.962.419 1.488-.296.528-.962.715-1.489.42-5.356-3.004-12.133-2.065-16.48 2.282-5.374 5.373-5.374 14.117 0 19.49 2.686 2.686 6.215 4.03 9.744 4.03 3.53 0 7.058-1.343 9.745-4.03 4.201-4.201 5.242-10.592 2.588-15.903-.27-.54-.05-1.198.49-1.468s1.197-.05 1.467.49c3.075 6.154 1.87 13.56-2.998 18.428-3.114 3.113-7.203 4.67-11.292 4.67-4.09 0-8.178-1.557-11.292-4.67-6.226-6.227-6.226-16.357 0-22.584 2.512-2.51 5.696-4.081 9.209-4.54 3.401-.446 6.913.228 9.889 1.897zm-2.495 6.198l3.923 3.923c.427.427.427 1.12 0 1.547L27.23 35.737c-.205.205-.484.32-.774.32-.29 0-.568-.115-.773-.32l-6.917-6.917c-.427-.427-.427-1.12 0-1.547l3.923-3.923c.205-.205.484-.32.774-.32.29 0 .568.115.773.32l2.22 2.22 5.308-5.307c.427-.427 1.12-.427 1.547 0zm-.774 2.32l-5.307 5.308c-.205.205-.484.32-.774.32-.29 0-.568-.115-.773-.32l-2.22-2.22-2.377 2.376 5.37 5.37 8.458-8.457-2.377-2.377zm6.22-5.957c.288 0 .57.117.774.32.203.204.32.486.32.774 0 .288-.117.57-.32.773-.205.205-.486.32-.774.32-.289 0-.57-.115-.774-.32-.204-.203-.32-.485-.32-.773 0-.288.116-.57.32-.773.203-.204.485-.32.774-.32z"/>
    </g>
</svg>
