<svg xmlns="http://www.w3.org/2000/svg" width="72" height="72" viewBox="0 0 72 72">
    <g fill="none" fill-rule="evenodd">
        <circle cx="44" cy="44" r="28" fill="#2C6269"/>
        <path fill="#79C8C7" fill-rule="nonzero" d="M52.5 18.667c.644 0 1.167.522 1.167 1.166l-.001 33.833h1.167c.601 0 1.097.456 1.16 1.04l.007.127c0 .644-.523 1.167-1.167 1.167l-2.315-.001L52.5 56h-7.018l-6.964-.001L38.5 56h-7.018l-6.964-.001L24.5 56H1.167C.523 56 0 55.477 0 54.833s.523-1.166 1.167-1.166l1.166-.001V40.833c0-.6.456-1.096 1.04-1.16l.127-.006h7c.644 0 1.167.522 1.167 1.166l-.001 12.833h4.667v-24.5c0-.6.456-1.096 1.04-1.16L17.5 28h7c.644 0 1.167.523 1.167 1.167l-.001 24.499h4.667V33.833c0-.6.456-1.096 1.04-1.16l.127-.006h7c.644 0 1.167.522 1.167 1.166l-.001 19.833h4.667V19.833c0-.6.456-1.096 1.04-1.16l.127-.006zM9.333 42H4.667v11.667h4.666V42zm14-11.667h-4.666v23.334h4.666V30.333zm14 4.667h-4.666v18.667h4.666V35zm14-14h-4.666v32.667h4.666V21zM49 0c2.574 0 4.667 2.093 4.667 4.667 0 2.573-2.093 4.666-4.667 4.666-.865 0-1.675-.236-2.37-.647l-7.61 7.612c.41.694.647 1.504.647 2.369 0 2.573-2.093 4.666-4.667 4.666s-4.667-2.093-4.667-4.666c0-.264.022-.522.064-.774l-5.372-1.532c-.812 1.379-2.312 2.306-4.025 2.306-1.05 0-2.021-.35-2.802-.937l-7.117 5.674c.373.67.586 1.442.586 2.263 0 2.573-2.093 4.666-4.667 4.666s-4.667-2.093-4.667-4.666C2.333 23.093 4.426 21 7 21c.905 0 1.75.259 2.466.706l7.274-5.8c-.261-.583-.407-1.228-.407-1.906 0-2.574 2.093-4.667 4.667-4.667s4.667 2.093 4.667 4.667c0 .039 0 .077-.002.115l5.7 1.627C32.223 14.68 33.534 14 35 14c.865 0 1.675.236 2.37.647l7.61-7.611c-.41-.695-.647-1.505-.647-2.37C44.333 2.094 46.426 0 49 0zM7 23.333c-1.288 0-2.333 1.048-2.333 2.334C4.667 26.952 5.712 28 7 28c1.288 0 2.333-1.048 2.333-2.333 0-.634-.254-1.21-.666-1.632-.038-.034-.073-.073-.106-.114l.074.082c-.421-.414-.998-.67-1.635-.67zm28-7c-1.288 0-2.333 1.048-2.333 2.334C32.667 19.952 33.712 21 35 21c1.288 0 2.333-1.048 2.333-2.333 0-1.286-1.045-2.334-2.333-2.334zm-14-4.666c-1.288 0-2.333 1.047-2.333 2.333 0 .535.18 1.028.485 1.423l.028.03.015.02c.425.525 1.076.86 1.805.86 1.288 0 2.333-1.047 2.333-2.333 0-1.286-1.045-2.333-2.333-2.333zm28-9.334c-1.288 0-2.333 1.048-2.333 2.334 0 .631.252 1.205.661 1.626l.025.021.021.022c.42.411.993.664 1.626.664 1.288 0 2.333-1.048 2.333-2.333 0-1.286-1.045-2.334-2.333-2.334z"/>
    </g>
</svg>
